<svg width="198" height="36" viewBox="0 0 198 36" fill="none" xmlns="http://www.w3.org/2000/svg">
<mask id="mask0_1_5313" style="mask-type:luminance" maskUnits="userSpaceOnUse" x="0" y="0" width="43" height="36">
<path d="M0.717987 0.453125H42.3189V35.5882H0.717987V0.453125Z" fill="white"/>
</mask>
<g mask="url(#mask0_1_5313)">
<mask id="mask1_1_5313" style="mask-type:luminance" maskUnits="userSpaceOnUse" x="0" y="18" width="26" height="18">
<path d="M0.717987 18.0205L12.9348 35.588L25.5508 28.0021L18.4443 18.0205H0.717987Z" fill="white"/>
</mask>
<g mask="url(#mask1_1_5313)">
<path d="M0.717987 18.0205H25.5508V35.588H0.717987V18.0205Z" fill="url(#paint0_linear_1_5313)"/>
</g>
<mask id="mask2_1_5313" style="mask-type:luminance" maskUnits="userSpaceOnUse" x="12" y="18" width="31" height="18">
<path d="M12.9349 35.588H30.3418L42.319 18.0205L12.9349 35.588Z" fill="white"/>
</mask>
<g mask="url(#mask2_1_5313)">
<path d="M12.9349 18.0205H42.319V35.588H12.9349V18.0205Z" fill="url(#paint1_linear_1_5313)"/>
</g>
<mask id="mask3_1_5313" style="mask-type:luminance" maskUnits="userSpaceOnUse" x="0" y="0" width="26" height="19">
<path d="M12.9348 0.454102L0.718048 18.0216H18.4443L25.5508 8.04008L12.9348 0.454102Z" fill="white"/>
</mask>
<g mask="url(#mask3_1_5313)">
<path d="M0.718048 0.454102H25.5508V18.0216H0.718048V0.454102Z" fill="#A6A6A6"/>
</g>
<mask id="mask4_1_5313" style="mask-type:luminance" maskUnits="userSpaceOnUse" x="12" y="0" width="31" height="19">
<path d="M12.9349 0.454102L42.3191 18.0216L30.3418 0.454102H12.9349Z" fill="white"/>
</mask>
<g mask="url(#mask4_1_5313)">
<path d="M12.9349 0.454102H42.3191V18.0216H12.9349V0.454102Z" fill="url(#paint2_linear_1_5313)"/>
</g>
</g>
<mask id="mask5_1_5313" style="mask-type:luminance" maskUnits="userSpaceOnUse" x="47" y="3" width="151" height="33">
<path d="M47.9348 3.00879H197.011V35.5886H47.9348V3.00879Z" fill="white"/>
</mask>
<g mask="url(#mask5_1_5313)">
<mask id="mask6_1_5313" style="mask-type:luminance" maskUnits="userSpaceOnUse" x="47" y="3" width="151" height="33">
<path d="M47.9348 3.00977H197.011V35.5896H47.9348V3.00977Z" fill="white"/>
</mask>
<g mask="url(#mask6_1_5313)">
<path d="M127.384 9.39796H130.338V27.0454H127.384V9.39796ZM116.604 8.9987C114.688 8.9987 112.931 9.63752 111.494 10.8353V9.39796H108.539V27.0454H111.494V17.0638C111.494 14.1891 113.809 11.9532 116.604 11.9532C119.399 11.9532 121.714 14.269 121.714 17.0638V27.0454H124.669V17.0638C124.669 12.5921 121.076 8.9987 116.604 8.9987ZM102.631 9.31811H105.585V26.3267C105.505 31.3574 101.433 35.4299 96.4024 35.5097C92.41 35.5896 88.737 32.9544 87.6191 29.1215H90.813C91.8511 31.2775 94.007 32.635 96.4024 32.5552C99.8359 32.4753 102.551 29.6805 102.71 26.2468V24.8095C98.9576 28.2431 93.1286 28.0834 89.6952 24.3304C86.2617 20.5773 86.4214 14.7481 90.1743 11.3144C93.6876 8.04047 99.1971 8.04047 102.71 11.3144L102.631 9.31811ZM102.631 18.1817C102.631 14.7481 99.8359 11.8734 96.4024 11.8734C92.9689 11.8734 90.0944 14.6682 90.0944 18.1019C90.0944 21.5355 92.8891 24.4102 96.4024 24.4102C99.8359 24.4102 102.631 21.6154 102.631 18.1817ZM57.1171 11.8734C59.5125 11.8734 61.7483 13.3107 62.7863 15.4667H65.9004C64.4631 10.5957 59.273 7.80091 54.4023 9.31811C49.5315 10.7555 46.7368 15.9459 48.254 20.8169C49.7711 25.6879 54.8814 28.4827 59.7521 26.9655C62.7065 26.0871 65.0221 23.7714 65.9004 20.8169H62.7863C61.3491 23.9311 57.5962 25.2886 54.4821 23.8513C51.368 22.4139 50.0106 18.6608 51.4479 15.5466C52.4859 13.3107 54.6418 11.8734 57.1171 11.8734ZM85.7826 18.1817C85.7826 23.2923 81.6305 27.3648 76.6001 27.3648C71.4898 27.3648 67.4175 23.2124 67.4175 18.1817C67.4175 13.151 71.4099 8.9987 76.5202 8.9987C81.6305 8.9987 85.7826 13.0712 85.7826 18.1817ZM82.8282 18.1817C82.8282 14.7481 80.0335 11.8734 76.6001 11.8734C73.1666 11.8734 70.2921 14.6682 70.2921 18.1019C70.2921 21.5355 73.0867 24.4102 76.5202 24.4102C80.0335 24.4102 82.8282 21.6154 82.8282 18.1817ZM179.045 8.9987C177.129 8.9987 175.372 9.63752 173.935 10.8353V9.39796H170.981V27.0454H173.935V17.0638C173.935 14.1891 176.251 11.8734 179.045 11.8734C181.92 11.8734 184.235 14.1891 184.235 16.9839V26.9655H187.19V17.0638C187.11 12.5921 183.517 8.9987 179.045 8.9987ZM165.072 9.39796H168.026V27.0454H165.072V24.9692C161.319 28.4028 155.49 28.2431 152.057 24.4901C148.623 20.737 148.783 14.9078 152.536 11.4741C154.213 9.87708 156.448 8.9987 158.764 8.9987C161.079 8.9987 163.315 9.87708 165.072 11.4741V9.39796ZM165.072 18.1817C165.072 14.7481 162.277 11.9532 158.764 11.9532C155.33 11.9532 152.536 14.7481 152.536 18.2616C152.536 21.6952 155.33 24.4901 158.764 24.4901C162.277 24.4102 165.072 21.6154 165.072 18.1817ZM196.931 12.2727V9.31811H192.54V4.52696H189.585V21.1363C189.585 24.4102 192.22 27.0454 195.494 27.0454H196.931V24.0908H195.494C193.897 24.0908 192.54 22.7333 192.54 21.1363V12.2727H196.931ZM128.821 3.00977C127.703 3.00977 126.904 3.88814 126.904 4.92622C126.904 6.04416 127.783 6.84268 128.821 6.84268C129.939 6.84268 130.737 5.96431 130.737 4.92622C130.817 3.88814 129.939 3.00977 128.821 3.00977C128.901 3.00977 128.901 3.00977 128.821 3.00977ZM147.984 9.39796H133.292V12.3525H144.152L133.292 24.0908V27.0454H147.984V24.0908H137.045L147.904 12.3525L147.984 9.39796Z" fill="#A6A6A6"/>
</g>
</g>
<defs>
<linearGradient id="paint0_linear_1_5313" x1="0.723853" y1="26.7845" x2="25.5618" y2="26.7845" gradientUnits="userSpaceOnUse">
<stop stop-color="#A6A6A6"/>
<stop offset="1" stop-color="#8A8C8C"/>
</linearGradient>
<linearGradient id="paint1_linear_1_5313" x1="12.929" y1="26.7845" x2="42.3512" y2="26.7845" gradientUnits="userSpaceOnUse">
<stop stop-color="#A6A6A6"/>
<stop offset="1" stop-color="#828282"/>
</linearGradient>
<linearGradient id="paint2_linear_1_5313" x1="12.9291" y1="9.22464" x2="42.3512" y2="9.22464" gradientUnits="userSpaceOnUse">
<stop stop-color="#A6A6A6"/>
<stop offset="0.625" stop-color="#878787"/>
</linearGradient>
</defs>
</svg>
