<svg width="197" height="51" viewBox="0 0 197 51" fill="none" xmlns="http://www.w3.org/2000/svg">
<path d="M19.4171 4.37918H12.3081V17.7965H7.34906V4.37918H0.211426V0.336778H19.4171V4.37918ZM21.7963 17.8252V0.336778H38.5654V4.12115H26.7267V7.10278H37.8488V10.6291H26.7267V14.0408H39.1387V17.8252H21.7963ZM41.26 9.45368C41.26 7.2748 41.6899 5.49729 42.5212 4.12115C43.3525 2.74502 44.6425 1.74158 46.305 1.08218C47.9676 0.422786 50.0315 0.107422 52.4967 0.107422C54.9619 0.107422 54.0446 0.107422 54.7039 0.164761C55.3632 0.19343 55.9652 0.250769 56.5385 0.336778C57.1118 0.422786 57.6565 0.508795 58.2011 0.623473C58.7457 0.738151 59.2904 0.881498 59.8923 1.02485L58.8891 4.60853C58.1724 4.46519 57.4558 4.35051 56.7678 4.23583C56.0799 4.14982 55.4206 4.06381 54.7899 4.03514C54.1306 3.9778 53.5 3.94913 52.8407 3.94913C51.7228 3.94913 50.7481 4.06381 49.9169 4.2645C49.1142 4.46519 48.4263 4.78055 47.9103 5.21059C47.3943 5.64064 47.0217 6.21403 46.7637 6.90209C46.5057 7.59016 46.391 8.42158 46.391 9.39634C46.391 10.3711 46.5057 11.0018 46.7637 11.6326C47.0217 12.2633 47.3943 12.7793 47.9103 13.1807C48.4263 13.5821 49.0856 13.8688 49.8595 14.0695C50.6335 14.2702 51.5794 14.3562 52.6687 14.3562C53.758 14.3562 54.9333 14.2988 56.1372 14.1555C57.3125 14.0121 58.4591 13.8114 59.5197 13.5534L60.4083 17.0224C59.835 17.1944 59.2617 17.3378 58.6884 17.4811C58.1151 17.6245 57.4845 17.7392 56.7965 17.8252C56.1085 17.9112 55.3919 17.9972 54.5893 18.0545C53.7867 18.1119 52.898 18.1405 51.9234 18.1405C50.2035 18.1405 48.6556 17.9685 47.337 17.6532C46.0184 17.3378 44.9004 16.8217 44.0118 16.1337C43.1232 15.4456 42.4352 14.5568 41.9766 13.4674C41.518 12.378 41.2886 11.0592 41.2886 9.51102L41.26 9.45368ZM63.1028 17.8252V0.336778H68.0906V7.79085H77.6934V0.336778H82.6812V17.8252H77.6934V11.8906H68.0906V17.8252H63.1028Z" fill="#A6A6A6"/>
<path fill-rule="evenodd" clip-rule="evenodd" d="M42.2059 32.9626H55.5352C58.5737 32.9626 61.0389 35.3422 61.0389 38.2665V50.4224H41.088C39.2534 50.4224 37.7341 48.9602 37.7341 47.1827V42.9683C37.7341 41.3055 39.1387 39.958 40.8587 39.958H51.9234L50.7481 42.4236H42.6072C42.2346 42.4236 41.8619 42.6816 41.8619 43.083V46.4086C41.8619 46.7813 42.2632 47.068 42.6072 47.068H56.7105V39.0979C56.7105 37.5498 55.3346 36.3743 53.8153 36.3743H40.572L42.1772 32.9913L42.2059 32.9626ZM151.793 26.598V50.3937H132.358C130.523 50.3937 129.004 48.9315 129.004 47.154V38.2378C129.004 35.3135 131.469 32.934 134.508 32.934H145.601L143.967 36.317H136.228C134.708 36.317 133.333 37.4924 133.333 39.0406V46.3513C133.333 46.724 133.734 47.0107 134.078 47.0107H147.493V26.598H151.793ZM83.4838 50.3937H87.7836V38.2378C87.7836 35.3135 85.3184 32.934 82.2798 32.934H73.1357L71.5017 36.317H80.5599C82.0792 36.317 83.4551 37.4924 83.4551 39.0406V50.3937H83.4838ZM65.568 26.598V50.3937H69.8678V26.598H65.568ZM29.6506 50.3937H33.9503V38.2378C33.9503 35.3135 31.4851 32.934 28.4466 32.934H0.211426V50.3937H4.5112V36.9764C4.5112 36.6037 4.91252 36.317 5.2565 36.317H14.1427C14.5154 36.317 14.888 36.575 14.888 36.9764V50.3937H19.1878V36.9764C19.1878 36.6037 19.5891 36.317 19.9331 36.317H26.6694C28.1886 36.317 29.5646 37.4924 29.5646 39.0406V50.3937H29.6506ZM174.266 32.9626H163.46C160.421 32.9626 157.956 35.3422 157.956 38.2665V50.4224H162.256V39.0692C162.256 37.5211 163.632 36.3456 165.151 36.3456H172.604L174.238 32.9626H174.266ZM119.143 32.9626C122.182 32.9626 124.647 35.3422 124.647 38.2665V50.4224H120.347V39.0692C120.347 37.5211 118.971 36.3456 117.452 36.3456H107.104V50.4224H102.804V32.9913C108.251 32.9913 113.697 32.9913 119.172 32.9913L119.143 32.9626ZM93.1153 34.0521L97.4151 31.5865V50.3937H93.1153V34.0521ZM97.4437 29.1496V26.5693H93.144V31.6152L97.4437 29.1496ZM177.276 32.9626H190.606C193.644 32.9626 196.109 35.3422 196.109 38.2665V50.4224H176.158C174.324 50.4224 172.805 48.9602 172.805 47.1827V42.9683C172.805 41.3055 174.209 39.958 175.929 39.958H186.994L185.818 42.4236H177.678C177.305 42.4236 176.932 42.6816 176.932 43.083V46.4086C176.932 46.7813 177.334 47.068 177.678 47.068H191.781V39.0979C191.781 37.5498 190.405 36.3743 188.886 36.3743H175.642L177.248 32.9913L177.276 32.9626Z" fill="#A6A6A6"/>
</svg>
