<svg width="215" height="35" viewBox="0 0 215 35" fill="none" xmlns="http://www.w3.org/2000/svg">
<path d="M173.539 6.88553C164.945 6.88553 159.81 12.0918 159.81 20.8945C159.81 29.6961 164.945 34.9027 173.539 34.9027C182.132 34.9027 187.215 29.6961 187.215 20.8945C187.215 12.0918 182.132 6.88553 173.539 6.88553ZM173.539 29.2672C169.346 29.2672 166.884 26.1545 166.884 20.8945C166.884 15.6337 169.346 12.4676 173.539 12.4676C177.731 12.4676 180.193 15.6337 180.193 20.8945C180.193 26.1545 177.731 29.2672 173.539 29.2672ZM214.307 26.0465C214.307 31.5748 209.853 34.9024 202.36 34.9024C194.815 34.9024 190.413 31.4678 190.413 25.6173H196.858C196.858 28.6229 198.902 30.3941 202.36 30.3941C205.713 30.3941 207.652 29.1059 207.652 26.852C207.652 24.0069 204.561 23.4704 201.102 22.8802C196.543 22.1287 191.094 21.2165 191.094 15.0442C191.094 9.94566 195.286 6.88578 202.36 6.88578C209.382 6.88578 213.574 10.1594 213.574 15.7417H207.129C207.129 12.8973 205.399 11.2869 202.36 11.2869C199.478 11.2869 197.749 12.4681 197.749 14.4532C197.749 16.8684 200.631 17.3521 203.984 17.9418C208.648 18.7473 214.307 19.7133 214.307 26.0465ZM95.0921 17.6739V34.366H88.1757V17.9958C88.1757 14.5072 86.3415 12.4678 83.2493 12.4678C79.7914 12.4678 77.7479 15.0975 77.7479 19.4985V34.366H70.8308V17.9958C70.8308 14.5072 69.0491 12.4678 65.9577 12.4678C62.447 12.4678 60.403 15.0975 60.403 19.4985V34.366H53.4872V7.42251H60.403V14.2415L60.3812 16.6486C61.0328 11.7867 64.3274 6.88578 68.9974 6.88578C73.8371 6.88578 76.9308 9.48805 77.6058 14.2413L77.6937 16.6486C78.3141 11.7867 81.503 6.88578 86.0798 6.88578C91.7384 6.88578 95.0921 10.8576 95.0921 17.6739ZM155.197 17.9418V34.366H148.28V18.2641C148.28 14.6147 146.394 12.4678 143.145 12.4678C139.477 12.4678 137.329 15.2045 137.329 19.7673V34.366H130.413V7.42276H137.329V14.2413L137.32 16.6486C137.994 11.7967 141.287 6.88578 145.975 6.88578C151.791 6.88578 155.197 10.9651 155.197 17.9418ZM48.5693 18.7963H48.5663C47.8509 11.2314 43.1832 6.88603 35.7745 6.88603C27.5999 6.88603 22.7795 12.0386 22.7795 20.8937C22.7795 29.6964 27.5999 34.9029 35.7745 34.9029C42.7424 34.9029 47.5042 31.3096 48.5939 25.179H41.8444C41.0513 27.8815 38.8655 29.5359 35.7743 29.5359C32.3442 29.5359 30.1187 26.3864 29.5861 22.025H48.6655V20.8937C48.6655 20.197 48.6324 19.5254 48.5728 18.8752L48.5693 18.7963ZM29.5711 18.7963C30.0988 14.4492 32.3284 12.1988 35.7745 12.1988C39.1694 12.1988 41.3985 14.4492 41.8768 18.7963H29.5711ZM125.495 18.7963H125.492C124.777 11.2314 120.11 6.88603 112.7 6.88603C104.526 6.88603 99.7052 12.0386 99.7052 20.8937C99.7052 29.6964 104.526 34.9029 112.7 34.9029C119.668 34.9029 124.43 31.3096 125.52 25.179H118.77C117.977 27.8815 115.791 29.5359 112.7 29.5359C109.27 29.5359 107.044 26.3864 106.512 22.025H125.591V20.8937C125.591 20.197 125.558 19.5259 125.499 18.8759L125.495 18.7963ZM106.497 18.7963C107.025 14.4492 109.254 12.1988 112.7 12.1988C116.095 12.1988 118.324 14.4492 118.802 18.7963H106.497ZM11.9637 7.42251H20.138V12.3068H11.9637V25.2951C11.9637 27.8175 13.5351 29.2677 16.1558 29.2677C17.4138 29.2677 18.7235 28.9449 19.6662 28.4084V33.6687C18.0943 34.4192 15.9458 34.9032 13.9549 34.9032C8.34823 34.9032 5.04679 31.6831 5.04679 26.2083V12.3068H0.693359V7.42251H5.04679V0.638672H11.9637V7.42251Z" fill="#A6A6A6"/>
</svg>
